<?xml version="1.0" encoding="UTF-8" standalone="no"?>
<svg
   xmlns:dc="http://purl.org/dc/elements/1.1/"
   xmlns:cc="http://creativecommons.org/ns#"
   xmlns:rdf="http://www.w3.org/1999/02/22-rdf-syntax-ns#"
   xmlns:svg="http://www.w3.org/2000/svg"
   xmlns="http://www.w3.org/2000/svg"
   xmlns:sodipodi="http://sodipodi.sourceforge.net/DTD/sodipodi-0.dtd"
   xmlns:inkscape="http://www.inkscape.org/namespaces/inkscape"
   version="1.0"
   width="1499.1442pt"
   height="1584.2023pt"
   viewBox="0 0 1499.1442 1584.2023"
   preserveAspectRatio="xMidYMid meet"
   id="svg2"
   inkscape:version="0.91 r13725"
   sodipodi:docname="storm_trooper_opaque.svg">
  <defs
     id="defs82" />
  <sodipodi:namedview
     pagecolor="#ffffff"
     bordercolor="#666666"
     borderopacity="1"
     objecttolerance="10"
     gridtolerance="10"
     guidetolerance="10"
     inkscape:pageopacity="0"
     inkscape:pageshadow="2"
     inkscape:window-width="748"
     inkscape:window-height="480"
     id="namedview80"
     showgrid="false"
     fit-margin-top="0"
     fit-margin-left="0"
     fit-margin-right="0"
     fit-margin-bottom="0"
     inkscape:zoom="0.10488889"
     inkscape:cx="936.91166"
     inkscape:cy="989.15491"
     inkscape:window-x="0"
     inkscape:window-y="0"
     inkscape:window-maximized="0"
     inkscape:current-layer="svg2" />
  <metadata
     id="metadata4">
Created by potrace 1.12, written by Peter Selinger 2001-2015
<rdf:RDF>
  <cc:Work
     rdf:about="">
    <dc:format>image/svg+xml</dc:format>
    <dc:type
       rdf:resource="http://purl.org/dc/dcmitype/StillImage" />
    <dc:title></dc:title>
  </cc:Work>
</rdf:RDF>
</metadata>
  <g
     transform="matrix(0.1,0,0,-0.1,-150.47067,1692.8784)"
     id="g6"
     style="fill:#000000;stroke:none">
    <path
       d="m 8515,16919 c -934,-39 -2006,-205 -2537,-392 -637,-225 -1143,-602 -1542,-1150 -296,-406 -573,-1012 -720,-1577 -100,-383 -143,-661 -206,-1342 -17,-180 -33,-335 -37,-345 -12,-35 -36,-53 -69,-53 -23,0 -44,-9 -65,-28 -34,-30 -48,-85 -174,-660 l -56,-253 27,-32 c 30,-36 29,-49 -10,-177 -15,-47 -47,-161 -72,-255 -47,-178 -74,-238 -124,-277 -84,-63 -110,-93 -143,-161 -66,-134 -80,-277 -52,-517 22,-195 56,-269 160,-351 91,-71 108,-103 113,-210 5,-101 -10,-229 -34,-288 -13,-32 -47,-68 -148,-155 -367,-317 -690,-716 -1029,-1271 -254,-417 -336,-777 -271,-1190 40,-255 106,-404 273,-608 31,-38 130,-171 221,-295 91,-124 182,-239 202,-255 27,-21 52,-31 87,-35 l 50,-4 179,-187 c 598,-624 613,-642 716,-828 118,-211 215,-469 336,-893 125,-437 198,-601 369,-830 308,-414 744,-728 1361,-983 381,-158 818,-228 1425,-230 231,-1 244,0 340,26 282,76 485,239 705,563 150,221 221,284 323,284 97,0 150,-44 246,-204 122,-205 215,-250 399,-190 l 79,25 59,-20 c 74,-26 134,-26 208,0 l 59,20 79,-25 c 184,-60 277,-15 399,190 96,160 149,204 246,204 102,0 173,-63 323,-284 220,-324 423,-487 705,-563 96,-26 109,-27 340,-26 607,2 1044,72 1425,230 785,324 1324,783 1571,1338 49,111 87,224 159,475 120,419 219,684 336,893 103,186 118,204 716,828 l 179,187 50,4 c 35,4 60,14 87,35 20,16 111,131 202,255 91,124 190,257 221,295 130,159 194,276 235,427 90,332 79,636 -33,961 -46,134 -105,253 -200,410 -339,555 -662,954 -1029,1271 -102,87 -135,122 -148,155 -23,57 -39,197 -34,295 5,100 24,133 113,203 104,82 138,156 160,351 28,240 14,383 -52,517 -33,68 -59,98 -143,161 -48,37 -78,100 -115,243 -19,74 -51,188 -71,254 -50,167 -51,175 -20,212 l 27,32 -56,253 c -126,575 -140,630 -174,660 -21,19 -42,28 -65,28 -33,0 -57,18 -69,53 -4,10 -20,165 -37,345 -63,681 -106,959 -206,1342 -147,565 -424,1171 -720,1577 -399,548 -905,925 -1542,1150 -232,82 -558,157 -1007,233 -818,138 -1686,193 -2500,159 z"
       id="path8"
       inkscape:connector-curvature="0"
       style="fill:#000000;stroke:none" />
    <path
       d="m 9730,16826 c 492,-37 1143,-118 1565,-197 984,-183 1674,-589 2194,-1292 455,-615 772,-1500 891,-2487 23,-195 70,-772 63,-780 -3,-3 -2452,-5 -5443,-5 -2991,0 -5440,2 -5443,5 -7,8 40,585 63,780 119,987 436,1872 891,2487 520,703 1210,1109 2194,1292 538,100 1220,178 1875,215 164,9 949,-3 1150,-18 z"
       id="path10"
       inkscape:connector-curvature="0"
       style="fill:#ffffff;stroke:none" />
    <path
       d="m 3494,11058 c 18,-10 19,-20 13,-167 -20,-502 -199,-2795 -226,-2887 -30,-103 -69,-146 -275,-302 -399,-302 -583,-476 -772,-726 -182,-243 -271,-436 -295,-646 -11,-95 -10,-121 10,-265 28,-208 64,-381 103,-497 30,-93 94,-229 129,-280 21,-29 23,-38 10,-38 -18,0 -333,405 -408,525 -54,85 -131,256 -158,350 -43,151 -58,264 -52,415 8,220 49,364 171,608 305,609 698,1120 1161,1507 65,55 128,116 140,135 19,34 20,45 15,450 -8,647 -5,1015 9,1100 27,162 160,670 183,698 27,32 70,42 148,36 41,-3 84,-11 94,-16 z"
       id="path12"
       inkscape:connector-curvature="0"
       style="fill:#ffffff;stroke:none" />
    <path
       d="m 9799,11058 c 23,-13 156,-104 297,-203 273,-193 676,-454 1324,-859 640,-400 837,-509 1120,-621 397,-157 595,-142 749,58 224,291 371,854 375,1439 l 1,198 357,0 c 355,0 357,0 369,-21 7,-13 25,-248 45,-588 55,-933 67,-1094 129,-1666 19,-176 41,-411 49,-523 9,-111 23,-231 32,-265 37,-144 123,-253 287,-365 120,-82 149,-111 177,-174 19,-44 27,-51 122,-99 123,-64 234,-145 314,-231 168,-180 369,-518 415,-696 45,-177 12,-521 -78,-805 -52,-164 -83,-225 -152,-302 -35,-38 -78,-99 -97,-137 -37,-73 -43,-80 -472,-530 -303,-318 -345,-367 -425,-496 -163,-264 -279,-561 -417,-1071 -89,-331 -151,-483 -266,-649 -261,-379 -625,-682 -1113,-926 -538,-270 -936,-357 -1632,-357 -353,0 -416,8 -545,71 -69,34 -96,55 -190,152 -112,116 -241,269 -370,439 -82,109 -118,142 -189,175 -59,28 -163,31 -282,10 -40,-7 -73,-10 -72,-7 1,11 118,92 166,114 73,33 208,32 283,-4 70,-33 199,-134 370,-289 298,-270 529,-407 801,-474 142,-35 246,-46 429,-46 407,0 692,110 946,365 342,343 464,796 343,1274 -88,348 -285,543 -620,611 -165,34 -336,22 -517,-35 -44,-14 -174,-65 -288,-114 -238,-101 -468,-183 -578,-205 -217,-45 -404,7 -532,148 -69,76 -121,178 -179,356 -126,385 -235,588 -410,766 -232,236 -471,325 -875,325 -404,0 -643,-89 -875,-325 -175,-178 -284,-381 -410,-766 -58,-178 -110,-280 -179,-356 -128,-141 -315,-193 -532,-148 -110,22 -340,104 -578,205 -114,49 -244,100 -288,114 -181,57 -352,69 -517,35 -335,-68 -532,-263 -620,-611 -121,-478 1,-931 343,-1274 254,-255 539,-365 946,-365 183,0 287,11 429,46 272,67 503,204 801,474 171,155 300,256 370,289 75,36 210,37 283,4 48,-22 165,-103 166,-114 1,-3 -32,0 -71,7 -120,21 -224,18 -283,-10 -71,-33 -107,-66 -189,-175 -129,-170 -258,-323 -370,-439 -94,-97 -121,-118 -190,-152 -129,-63 -192,-71 -545,-71 -696,0 -1094,87 -1632,357 -488,244 -852,547 -1113,926 -115,166 -178,320 -266,649 -134,498 -254,809 -417,1071 -80,129 -122,178 -425,496 -429,450 -435,457 -472,530 -19,38 -62,99 -97,137 -69,77 -100,138 -152,302 -90,284 -123,628 -78,805 46,178 247,516 415,696 80,86 191,167 314,231 95,48 103,55 122,99 28,63 57,92 177,174 164,112 250,221 287,365 9,34 23,154 32,265 8,112 30,347 49,523 62,572 74,733 129,1666 20,340 38,575 45,588 12,21 14,21 369,21 l 357,0 1,-198 c 4,-494 108,-973 280,-1288 189,-348 377,-394 844,-209 283,112 480,221 1120,621 648,405 1051,666 1324,859 141,99 274,190 297,203 l 42,22 757,0 757,0 42,-22 z"
       id="path14"
       inkscape:connector-curvature="0"
       style="fill:#ffffff;stroke:none" />
    <path
       d="m 14703,11067 c 18,-8 38,-21 45,-29 23,-28 156,-536 183,-698 14,-85 17,-453 9,-1100 -5,-405 -4,-416 15,-450 12,-19 75,-80 140,-135 463,-387 856,-898 1161,-1507 122,-244 163,-388 171,-608 6,-151 -9,-264 -52,-415 -27,-94 -104,-265 -158,-350 -75,-120 -390,-525 -408,-525 -13,0 -11,9 10,38 35,51 99,187 129,280 39,116 75,289 103,497 20,144 21,170 10,265 -24,210 -113,403 -295,646 -189,250 -373,424 -772,726 -206,156 -245,199 -275,302 -20,67 -108,1128 -184,2226 -46,655 -53,814 -34,826 35,22 159,28 202,11 z"
       id="path16"
       inkscape:connector-curvature="0"
       style="fill:#ffffff;stroke:none" />
    <path
       d="m 2960,9848 0,-432 -31,30 c -129,122 -168,497 -73,704 20,44 87,130 101,130 2,0 3,-194 3,-432 z"
       id="path18"
       inkscape:connector-curvature="0"
       style="fill:#ffffff;stroke:none" />
    <path
       d="m 15144,10151 c 95,-211 56,-583 -73,-705 l -31,-30 0,434 0,434 39,-38 c 22,-21 51,-64 65,-95 z"
       id="path20"
       inkscape:connector-curvature="0"
       style="fill:#ffffff;stroke:none" />
    <path
       d="m 9139,4710 c 364,-38 594,-191 741,-495 28,-57 76,-187 110,-300 76,-246 176,-517 240,-650 86,-178 190,-288 330,-346 48,-21 72,-23 190,-23 115,0 151,4 243,28 163,41 387,118 619,212 256,103 357,133 473,140 173,11 318,-40 424,-150 68,-72 156,-240 193,-371 32,-115 32,-317 0,-428 -64,-222 -194,-405 -401,-560 -241,-182 -525,-279 -816,-280 -312,-1 -535,84 -802,304 -50,42 -191,152 -312,245 -147,113 -226,180 -236,201 -12,26 -15,86 -16,360 0,373 -6,451 -36,490 -47,64 -141,85 -212,49 -60,-31 -60,-32 -63,347 l -3,342 -31,55 c -54,95 -151,125 -226,70 -15,-11 -30,-20 -33,-20 -3,0 -5,91 -5,203 0,236 -8,274 -74,342 -45,47 -90,62 -151,51 -42,-8 -93,-50 -110,-88 l -11,-28 -25,37 c -39,60 -72,78 -139,78 -67,0 -100,-18 -139,-78 l -25,-37 -11,28 c -17,38 -68,80 -110,88 -61,11 -106,-4 -151,-51 -66,-68 -74,-106 -74,-342 0,-112 -2,-203 -5,-203 -3,0 -18,9 -33,20 -75,55 -172,25 -226,-70 l -31,-55 -3,-342 c -3,-379 -3,-378 -63,-347 -71,36 -165,15 -212,-49 -30,-39 -36,-117 -36,-490 -1,-274 -4,-334 -16,-360 -10,-21 -89,-88 -236,-201 -121,-93 -262,-203 -312,-245 -199,-164 -364,-246 -576,-288 -126,-24 -337,-22 -468,6 -414,86 -777,352 -923,675 -58,128 -75,207 -75,356 1,165 20,242 102,410 45,94 68,127 122,181 111,110 243,156 416,145 116,-7 217,-37 473,-140 232,-94 456,-171 619,-212 92,-24 128,-28 243,-28 118,0 142,2 190,23 140,58 244,168 330,346 64,133 164,404 240,650 92,302 178,460 313,581 191,170 487,247 816,214 z"
       id="path22"
       inkscape:connector-curvature="0"
       style="fill:#ffffff;stroke:none" />
    <path
       d="m 8876,10130 c -122,-22 -170,-45 -546,-260 -146,-83 -344,-191 -440,-239 -426,-216 -1784,-830 -2135,-966 -424,-164 -861,-259 -1079,-235 -171,20 -248,84 -382,318 -175,308 -256,518 -379,976 -36,137 -71,258 -76,268 -5,10 -17,18 -26,18 -14,0 -15,-10 -10,-68 4,-37 10,-140 13,-228 6,-153 5,-166 -30,-359 -46,-257 -66,-471 -66,-707 0,-219 11,-338 46,-497 65,-291 166,-495 319,-640 41,-39 79,-71 83,-71 5,0 23,53 41,118 66,242 130,363 265,497 133,132 199,158 448,175 411,27 955,202 1538,494 311,156 547,289 1964,1103 375,216 407,228 576,228 169,0 201,-12 576,-228 1417,-814 1653,-947 1964,-1103 583,-292 1127,-467 1538,-494 249,-17 315,-43 448,-175 135,-134 199,-255 265,-497 18,-65 36,-118 41,-118 4,0 42,32 83,71 153,145 254,349 319,640 35,159 46,278 46,497 0,236 -20,450 -66,707 -35,193 -36,206 -30,359 3,88 9,191 13,228 5,58 4,68 -10,68 -9,0 -21,-8 -26,-18 -5,-10 -40,-131 -76,-268 -123,-458 -204,-668 -379,-976 -134,-234 -211,-298 -382,-318 -218,-24 -656,71 -1079,235 -209,81 -847,363 -1450,640 -487,224 -832,397 -1135,571 -302,173 -391,218 -472,240 -65,18 -246,26 -312,14 z"
       id="path24"
       inkscape:connector-curvature="0"
       style="fill:#000000;stroke:none" />
    <path
       d="m 8723,7680 c -45,-19 -47,-31 -40,-439 6,-360 8,-386 25,-404 18,-17 37,-19 292,-19 255,0 274,2 292,19 18,18 19,43 25,409 6,382 5,389 -15,414 l -20,25 -269,2 c -147,1 -278,-2 -290,-7 z"
       id="path26"
       inkscape:connector-curvature="0"
       style="fill:#000000;stroke:none" />
    <path
       d="m 8239,7462 c -67,-43 -619,-487 -637,-514 -15,-20 -17,-61 -20,-286 l -3,-264 33,7 c 18,4 172,73 342,154 229,108 315,153 330,174 20,28 21,39 21,382 0,234 -4,358 -11,365 -7,7 -23,2 -55,-18 z"
       id="path28"
       inkscape:connector-curvature="0"
       style="fill:#000000;stroke:none" />
    <path
       d="m 9702,7473 c -4,-10 -7,-174 -7,-365 0,-336 1,-347 21,-375 15,-21 101,-66 330,-174 170,-81 324,-150 342,-154 l 33,-7 -3,264 c -3,226 -5,266 -20,287 -20,29 -598,492 -650,521 -36,20 -38,20 -46,3 z"
       id="path30"
       inkscape:connector-curvature="0"
       style="fill:#000000;stroke:none" />
    <path
       d="m 2731,7263 c -111,-54 -146,-77 -209,-137 -76,-72 -262,-309 -262,-335 0,-18 39,-81 50,-81 5,0 59,64 121,143 174,218 262,298 422,378 42,22 77,45 77,52 -1,21 -26,47 -46,46 -10,0 -79,-30 -153,-66 z"
       id="path32"
       inkscape:connector-curvature="0"
       style="fill:#000000;stroke:none" />
    <path
       d="m 15082,7310 c -6,-11 -12,-24 -12,-30 0,-5 35,-27 78,-49 159,-80 247,-160 421,-378 62,-79 116,-143 121,-143 11,0 50,63 50,81 0,26 -186,263 -262,335 -64,61 -96,82 -213,138 -76,36 -145,66 -154,66 -9,0 -22,-9 -29,-20 z"
       id="path34"
       inkscape:connector-curvature="0"
       style="fill:#000000;stroke:none" />
    <path
       d="m 2910,7178 c -147,-83 -202,-123 -276,-200 -75,-78 -258,-310 -270,-342 -5,-14 34,-86 48,-86 4,0 42,53 85,118 104,159 270,325 398,399 135,78 133,76 115,110 -21,37 -35,38 -100,1 z"
       id="path36"
       inkscape:connector-curvature="0"
       style="fill:#000000;stroke:none" />
    <path
       d="m 14994,7185 c -9,-14 -14,-31 -11,-39 3,-7 38,-31 79,-54 165,-90 315,-235 441,-425 43,-65 81,-117 85,-117 14,0 53,72 48,86 -3,9 -47,70 -98,137 -104,137 -223,266 -283,307 -52,36 -222,130 -235,130 -5,0 -17,-11 -26,-25 z"
       id="path38"
       inkscape:connector-curvature="0"
       style="fill:#000000;stroke:none" />
    <path
       d="m 2990,7039 c -212,-115 -415,-322 -511,-521 -24,-50 -22,-60 16,-112 14,-19 15,-19 36,0 12,10 30,37 41,59 42,81 145,222 218,296 86,87 171,147 276,195 41,18 74,36 74,40 0,12 -55,84 -65,84 -5,0 -44,-19 -85,-41 z"
       id="path40"
       inkscape:connector-curvature="0"
       style="fill:#000000;stroke:none" />
    <path
       d="m 14888,7041 c -16,-22 -28,-42 -28,-45 0,-4 33,-22 74,-40 105,-48 190,-108 276,-195 73,-74 176,-215 218,-296 11,-22 29,-49 41,-59 21,-19 22,-19 36,0 38,52 40,62 16,112 -72,148 -217,319 -366,428 -74,55 -212,134 -231,134 -5,0 -21,-18 -36,-39 z"
       id="path42"
       inkscape:connector-curvature="0"
       style="fill:#000000;stroke:none" />
    <path
       d="m 3051,6859 c -168,-83 -314,-240 -440,-470 -22,-42 -41,-82 -41,-89 0,-14 52,-100 61,-100 3,0 25,35 49,78 173,304 298,423 558,533 l 33,14 -32,43 c -41,56 -62,55 -188,-9 z"
       id="path44"
       inkscape:connector-curvature="0"
       style="fill:#000000;stroke:none" />
    <path
       d="m 14761,6868 -32,-43 33,-14 c 260,-110 385,-229 558,-533 24,-43 46,-78 49,-78 9,0 61,86 61,100 0,20 -76,155 -142,252 -33,48 -100,126 -149,172 -71,68 -109,95 -190,135 -126,64 -147,65 -188,9 z"
       id="path46"
       inkscape:connector-curvature="0"
       style="fill:#000000;stroke:none" />
    <path
       d="m 7000,6601 c -194,-107 -289,-166 -297,-182 -17,-33 -18,-340 -1,-357 7,-7 23,-12 36,-12 41,0 502,183 533,212 l 29,26 0,236 c 0,130 -3,236 -7,236 -5,0 -136,-71 -293,-159 z"
       id="path48"
       inkscape:connector-curvature="0"
       style="fill:#000000;stroke:none" />
    <path
       d="m 10700,6524 0,-236 29,-26 c 31,-29 492,-212 533,-212 13,0 29,5 36,12 17,17 16,324 -1,357 -8,16 -103,75 -297,182 -157,88 -288,159 -292,159 -5,0 -8,-106 -8,-236 z"
       id="path50"
       inkscape:connector-curvature="0"
       style="fill:#000000;stroke:none" />
    <path
       d="m 3244,6706 c -158,-65 -286,-165 -393,-306 -69,-91 -151,-248 -151,-287 0,-15 13,-47 29,-71 l 28,-43 53,98 c 126,236 275,391 470,488 41,20 82,46 92,58 15,20 15,23 -10,59 -15,21 -29,37 -32,37 -3,0 -42,-15 -86,-33 z"
       id="path52"
       inkscape:connector-curvature="0"
       style="fill:#000000;stroke:none" />
    <path
       d="m 14638,6702 c -25,-36 -25,-39 -10,-59 10,-12 51,-38 92,-58 195,-97 344,-252 470,-488 l 53,-98 28,43 c 16,24 29,56 29,71 0,39 -82,196 -151,287 -103,136 -231,238 -376,299 -107,45 -105,45 -135,3 z"
       id="path54"
       inkscape:connector-curvature="0"
       style="fill:#000000;stroke:none" />
    <path
       d="m 3419,6506 c -245,-100 -428,-273 -539,-508 -39,-82 -39,-122 1,-176 17,-24 36,-41 43,-39 6,2 32,46 59,98 107,214 256,364 464,466 61,30 114,61 117,69 5,13 -67,114 -82,114 -4,0 -32,-11 -63,-24 z"
       id="path56"
       inkscape:connector-curvature="0"
       style="fill:#000000;stroke:none" />
    <path
       d="m 14471,6480 c -22,-28 -38,-57 -35,-64 3,-8 56,-39 117,-69 208,-102 357,-252 464,-466 27,-52 53,-96 59,-98 21,-7 74,78 74,116 0,70 -102,248 -206,360 -82,89 -171,154 -289,211 -144,70 -137,70 -184,10 z"
       id="path58"
       inkscape:connector-curvature="0"
       style="fill:#000000;stroke:none" />
    <path
       d="m 3550,6252 c -164,-72 -322,-194 -402,-310 -51,-74 -109,-209 -114,-265 -4,-44 -1,-56 18,-77 25,-28 68,-60 80,-60 4,0 27,42 51,94 62,130 123,221 209,311 81,86 217,181 307,215 l 60,22 -41,54 c -27,37 -47,54 -62,53 -11,0 -59,-17 -106,-37 z"
       id="path60"
       inkscape:connector-curvature="0"
       style="fill:#000000;stroke:none" />
    <path
       d="m 14282,6236 -41,-54 60,-22 c 90,-34 226,-129 307,-215 86,-90 147,-181 209,-311 24,-52 47,-94 51,-94 12,0 55,32 80,60 36,39 25,108 -37,234 -73,149 -162,245 -315,341 -79,49 -225,115 -256,115 -10,0 -36,-24 -58,-54 z"
       id="path62"
       inkscape:connector-curvature="0"
       style="fill:#000000;stroke:none" />
    <path
       d="m 6025,6115 c -300,-133 -375,-170 -397,-197 -16,-18 -28,-35 -28,-39 0,-3 18,-14 41,-24 39,-18 45,-18 192,-1 84,10 235,31 337,46 179,28 186,30 212,59 28,31 28,32 28,176 0,80 -3,145 -7,145 -5,0 -174,-74 -378,-165 z"
       id="path64"
       inkscape:connector-curvature="0"
       style="fill:#000000;stroke:none" />
    <path
       d="m 11590,6135 c 0,-144 0,-145 28,-176 26,-29 33,-31 212,-59 102,-15 253,-36 337,-46 147,-17 153,-17 192,1 23,10 41,22 41,26 0,4 -15,23 -32,41 -26,27 -114,70 -399,196 -201,89 -369,162 -372,162 -4,0 -7,-65 -7,-145 z"
       id="path66"
       inkscape:connector-curvature="0"
       style="fill:#000000;stroke:none" />
    <path
       d="m 3745,6031 c -109,-55 -247,-162 -325,-252 -74,-87 -161,-228 -186,-302 l -17,-51 54,-48 c 30,-26 59,-47 64,-48 6,0 28,35 50,78 137,267 309,430 527,496 l 67,21 -61,70 c -34,39 -68,71 -77,73 -10,2 -53,-15 -96,-37 z"
       id="path68"
       inkscape:connector-curvature="0"
       style="fill:#000000;stroke:none" />
    <path
       d="m 14083,5997 -62,-72 67,-21 c 218,-67 390,-229 527,-496 22,-43 45,-78 50,-78 6,1 34,22 64,48 l 54,48 -17,51 c -25,74 -112,215 -186,302 -36,41 -106,106 -155,143 -89,68 -232,148 -264,148 -9,0 -44,-33 -78,-73 z"
       id="path70"
       inkscape:connector-curvature="0"
       style="fill:#000000;stroke:none" />
    <path
       d="m 3980,5751 c -189,-62 -327,-158 -425,-296 -46,-64 -105,-176 -105,-198 0,-11 128,-83 135,-75 1,2 21,35 43,74 110,190 271,315 467,360 103,24 148,39 152,51 2,6 -24,34 -57,62 -73,61 -88,62 -210,22 z"
       id="path72"
       inkscape:connector-curvature="0"
       style="fill:#000000;stroke:none" />
    <path
       d="m 13810,5729 c -33,-28 -59,-56 -57,-62 4,-12 49,-27 152,-51 196,-45 357,-170 467,-360 22,-39 42,-72 43,-74 7,-8 135,64 135,75 0,22 -59,134 -105,198 -99,139 -244,239 -433,299 -117,37 -129,35 -202,-25 z"
       id="path74"
       inkscape:connector-curvature="0"
       style="fill:#000000;stroke:none" />
    <path
       d="m 6309,2777 c -169,-61 -283,-200 -311,-380 -27,-178 57,-372 205,-470 190,-126 429,-95 583,76 84,94 124,201 124,334 0,186 -98,342 -269,425 -58,29 -76,33 -165,36 -86,2 -111,-1 -167,-21 z"
       id="path76"
       inkscape:connector-curvature="0"
       style="fill:#000000;stroke:none" />
    <path
       d="m 11404,2782 c -190,-66 -314,-242 -314,-445 0,-133 40,-240 124,-334 154,-171 393,-202 583,-76 148,98 232,292 205,470 -29,182 -148,325 -319,382 -80,27 -206,28 -279,3 z"
       id="path78"
       inkscape:connector-curvature="0"
       style="fill:#000000;stroke:none" />
  </g>
</svg>
